<?xml version="1.0" encoding="UTF-8"?>
<svg width="1200pt" height="1200pt" version="1.1" viewBox="0 0 1200 1200" xmlns="http://www.w3.org/2000/svg">
 <path d="m600 159.14c21.281-59.746 109.01-48.199 114.11 15.023 36.02-52.203 117.77-18.34 106.33 44.043 48.305-41.102 118.5 12.766 91.305 70.062 57.297-27.199 111.16 43 70.062 91.305 62.383-11.441 96.246 70.309 44.043 106.33 63.219 5.0938 74.77 92.82 15.023 114.11l-0.003907-0.003906c59.746 21.281 48.199 109.01-15.023 114.11 52.203 36.02 18.34 117.77-44.043 106.33 41.102 48.305-12.766 118.5-70.062 91.305h0.003906c27.199 57.297-43 111.16-91.305 70.062 11.441 62.383-70.309 96.246-106.33 44.043-5.0938 63.219-92.82 74.77-114.11 15.023v-0.003907c-21.281 59.746-109.01 48.199-114.11-15.023-36.02 52.203-117.77 18.34-106.33-44.043-48.305 41.102-118.5-12.766-91.305-70.062-57.297 27.199-111.16-43-70.062-91.305-62.383 11.441-96.246-70.309-44.043-106.33-63.219-5.0938-74.77-92.82-15.023-114.11l0.003907 0.003906c-59.746-21.281-48.199-109.01 15.023-114.11-52.203-36.02-18.34-117.77 44.043-106.33-41.102-48.305 12.766-118.5 70.062-91.305-27.199-57.297 43-111.16 91.305-70.062-11.441-62.383 70.309-96.246 106.33-44.043 5.0938-63.219 92.82-74.77 114.11-15.023z"/>
</svg>
