<svg xmlns="http://www.w3.org/2000/svg" xmlns:xlink="http://www.w3.org/1999/xlink" version="1.1" id="Layer_1" x="0px" y="0px" viewBox="0 0 1013.7 635.2" style="enable-background:new 0 0 1013.7 635.2;" xml:space="preserve">
<circle cx="989.8" cy="137.6" r="24"/>
<circle cx="812.9" cy="539.5" r="24"/>
<circle cx="26.1" cy="382.7" r="24"/>
<path d="M271.8,47.6C258,50,244,69.3,234.7,84.1c-15.3,24.4-27.1,53.5-27.4,54.4c31.8-62.1,50.6-83.7,66.1-66.6  c8.2,9.1,2.4,75.8-24.9,112.2c-27.2,36.4-67.3,17.7-67.3,17.7s8.7-24.9,16.3-48.1C202.2,138.9,229,41.2,229,41.2  c-10.3,7-24.9,12.8-37.4,16.2l-1.7,7.9l-31.8,115.2c0,0-52.8,55.2-70.8,128.6c-18,73.4,30.8,80.6,47.5,51  c16.8-29.7,36.5-136.5,36.5-136.5s41.2,12.7,67.9,3c14.6-5.4,31.4-24,44.5-48.5c2.6-4.8,5-9.5,6.9-14.8c0.2,0,0.2-0.2,0.3-0.3  c7.1-16.5,12.5-34.6,14.9-52.7C313.1,57.5,296.3,43.4,271.8,47.6z M99.4,337.6c-16.3-18.9,41.8-113.4,41.8-113.4  C133.3,268.5,115.8,356.3,99.4,337.6z"/>
<path d="M514.8,206c-28.5,1.8-26-35.8-26-35.8s57.5-17.1,89.1-58.9c31.5-41.8,0.8-76.5-46.5-60.4s-84.8,102.6-101.1,124.5  c-16.2,21.7-33.1,39.2-35.2,29.9c-2-9.4,12.2-57.4,26.4-101.1c14-43.6,16.9-63.4,0.8-51.3c-16.2,12.2-38,40-38.8,37.3  c-0.9-2.9-2.1-14.6-4.1-27.9c-2-13.4-36.4-24.9-43-5.1c-10.4,30.9,5.1,59.9,5.1,59.9c-11.3,12.8-35.9,34-50.3,46  c-0.2,0.2-0.2,0.3-0.3,0.3c-6.3,5.3-10.6,8.8-10.6,8.8s-34.9,25.1-6,11.3c3-1.5,6.3-3.3,9.7-5.3c27.6-17.4,61.9-52.5,61.9-52.5  c19.6-5.1,41.7-22.9,37.1-13.3c-4.4,9.7-13.3,52.5-16.6,86.9c-3.2,34.3,13.7,38,38.5,25.5c24.6-12.5,46.9-49.8,46.9-49.8  c-0.2,36.2,30.8,78.8,83.6,48c51-30,85.7-109,87.8-113.8C591.9,152.9,543.3,204.2,514.8,206z M531.4,69.5  c36.4-16.6,45.7,50.6-44.8,81.2C486.5,150.7,495,86.1,531.4,69.5z"/>
<path d="M324,519.5c-29.4,35.9-65.7,69.6-88.6,71.1c-28.4,1.8-26-35.8-26-35.8s57.5-16.9,89.1-58.9c31.5-41.8-7.5-77-54.9-60.4  c-42.3,14.8-69.4,59.9-70.9,124.1c-0.9,36.2,30.6,78.9,83.5,48c25.2-14.8,46.3-41.4,61.6-65.2c15.8-24.6,25.2-46.2,26.3-48.6  C337.9,502.3,331.1,510.9,324,519.5z M252,454.1c36.4-16.6,45.7,50.6-44.8,81.4C207.2,535.5,215.6,470.7,252,454.1z"/>
<g>
	<path d="M669.3,0c0,0-21.2,34.2-46.9,49.3c0,0-17.5,70.6-27.9,110.7s-10.9,72.8,19.4,73.6c30.3,0.9,79.9-76.8,102.3-110.7   s-19.8,15-52.2,51.8c-32.3,36.8-50.3,36.4-39.7-2.4C634.9,133.4,669.3,0,669.3,0z"/>
	<rect x="568.5" y="58" width="133.4" height="7.9"/>
</g>
<g>
	<path d="M156.6,381.3c0,0-21.2,34.2-46.9,49.3c0,0-17.5,70.6-27.9,110.7s-10.9,72.8,19.4,73.6s79.9-76.8,102.3-110.7   c22.4-34-19.8,15-52.2,51.8s-50.3,36.4-39.7-2.4C122.3,514.7,156.6,381.3,156.6,381.3z"/>
	<rect x="55.9" y="439.3" width="133.4" height="7.9"/>
</g>
<g>
	<path d="M768.7,0c0,0-21.2,34.2-46.9,49.3c0,0-17.5,70.6-27.9,110.7c-10.5,40.1-10.9,72.8,19.4,73.6   c30.3,0.9,79.9-76.8,102.3-110.7s-19.8,15-52.2,51.8c-32.3,36.8-50.3,36.4-39.7-2.4C734.3,133.4,768.7,0,768.7,0z"/>
	<rect x="667.9" y="58" width="133.4" height="7.9"/>
</g>
<path d="M977.7,103.5c-26.7,1.4-57,29.9-72.8,43.6l33.2-90.9h-34c0,0-53,99.5-76.8,134.6c-23.8,35.2-30.8,15.7-15.4-31.5  c15.4-47.4,35.6-103.1,35.6-103.1h-28.7c0,0-36.8,90.9-45.3,129.7c-8.6,38.9,18.6,46.5,35.2,42.6c15.7-3.9,54.5-48.3,58.4-52.7  c-0.6,3.5-6.8,32-27.9,57.8c-22.5,27.6-49.8,75.5-48,114.9c1.8,39.4,50.4,29.7,68.5-10.9c18.3-40.6,35.8-157.1,35.8-157.1  s20.5-33.1,61.1-59.9c16.1-10.6,29.9-0.9,29.9,13.3s26.2,16.1,27,5.6C1014.6,126.8,1007.6,101.9,977.7,103.5z M807.7,338.2  c-10.6-16.8,38.2-98.3,38.2-98.3C838.8,288.7,818.3,354.8,807.7,338.2z"/>
<path d="M714.9,328c6-42.6-44.2-66.4-64.9-14.2c-20.5,52.4-29.1,133.6-29.1,133.6s-31.5-30.9-73.4-10.9  c-41.8,19.9-63.1,100.7-63.1,100.7s-36.4,49.7-50.9,45.4c-14.6-4.2,27.3-89.8,40-125.6c12.7-35.8-50.7-56.3-112,62.2  c1.4-5.1,20.5-74.6,22.8-83.3c2.6-9.1-34.9-9.2-37-1.5c0,0-11.6,42.4-23.4,85.1c-2.1,7.7-4.2,15.4-6.3,22.9  c-9.2,33.2-17.4,61.7-18.3,64c-2.4,5.7,21.4,5.7,25.8,2.4c4.4-3.2,82.4-136.6,97.8-143.1c15.4-6.5-17.8,66.3-28.2,110.3  c-10.6,44.1,21.4,43.9,36.7,38.9c14.8-4.8,50.7-46.5,53.7-50c-0.9,4.5-9.8,51,26,50.7c35.6-0.5,65.4-50.6,68.4-55.8  c-1.1,5.7-10.7,59.5,22,56.6c31.1-2.7,71.5-67.5,101-120.6c3.2-5.7,6.3-11.3,9.2-16.8c-1.1,1.4-5.6,7.5-12.1,16.2  c-21.4,28.2-64,83.3-75.8,87.8c-15.7,6-13.3-28.5,12.8-86.6C662.8,438.3,708.9,370.4,714.9,328z M683.1,319  c4.4-8.6,21.7-6.5,17.4,11.3c-4.5,17.8-40,82.4-40,82.4S678.5,327.5,683.1,319z M547.2,575.3c-15.4,21-39.7,13-22.6-42.1  c16.9-54.9,40.8-84.1,60.2-82.7c19.3,1.5,26.3,22.2,26.3,22.2S562.5,554.4,547.2,575.3z"/>
<path d="M738,486.2c0,0-29.9,18.8-45.3,5.5c-15.4-13.3-12.9-56.6,12.1-58.2c25.1-1.6,26.7,22.2,20.6,40.4c0,0,15.6-6.5,35-37.4h29.1  c0,0-44.9,95.2-35.2,144.3c9.7,49.1,78.2,39,97.6-13.5c19.4-52.6-5.1-77.5-29.3-75.8c-27.6,2-41.1,41.3-5.4,49.5  c0,0-13,13.5-21.9,14.7c0,0-22.8-28.1-4.3-54.8c23-33.2,84-16.1,84.4,34.4c0.4,50.5-31.9,101.1-103.1,99.9  C701.2,633.9,710.5,538.9,738,486.2z"/>
<path d="M8.4,368.5c0,0-15.7,11.1-4.2,42.9c12.4,34.4,51.7,35.8,51.7,35.8v-7.9c0,0-50.7-3.8-37.3-47.9  C29.4,355.9,8.4,368.5,8.4,368.5z"/>
<path d="M189.1,57.7c0,0-14-3.3-35.4-6.9s-49.2,3.7-56.1,28.4c-6.9,24.7,7.6,46,30.4,43.1s24.6-35.5,6.9-40.5  c-17.7-5-30.5,4.8-25.1,23.8c0,0-11.2-10.9-1.9-30.3s33.5-19.8,50-17.9c19.4,2.2,30.4,4.3,30.4,4.3L189.1,57.7z"/>
</svg>